<svg width="202" height="29" viewBox="0 0 202 29" fill="none" xmlns="http://www.w3.org/2000/svg">
<g clip-path="url(#clip0_339_4847)">
<path d="M40.9853 21.8912C35.9629 21.8912 32.8465 18.9944 32.8465 14.3319C32.8465 9.66938 35.9654 6.75 40.9853 6.75C44.2498 6.75 46.9242 8.19966 48.1472 10.6275L48.2677 10.8657L44.5687 12.4433L44.4633 12.2276C43.8581 10.9736 42.6929 10.3265 41.0079 10.3265C38.3334 10.3265 36.7388 11.8313 36.7388 14.3394C36.7388 16.8475 38.3334 18.3071 41.0079 18.3071C42.713 18.3071 43.9058 17.6425 44.5562 16.3308L44.6617 16.1151L48.3305 17.7178L48.215 17.9535C47.0071 20.4214 44.3026 21.8912 40.9853 21.8912Z" fill="#FF2449"/>
<path d="M40.9853 21.6405C36.1035 21.6405 33.0976 18.8114 33.0976 14.332C33.0976 9.85264 36.111 7.00098 40.9853 7.00098C44.5336 7.00098 46.8841 8.67385 47.9237 10.7405L44.6993 12.1174C43.9761 10.6126 42.5975 10.0759 41.0154 10.0759C38.4163 10.0759 36.4952 11.4779 36.4952 14.3396C36.4877 17.1386 38.4213 18.5581 41.0079 18.5581C42.5899 18.5581 44.0213 17.9913 44.7747 16.4413L47.984 17.8433C46.9594 19.9677 44.5788 21.6405 40.9853 21.6405Z" fill="#FF2449"/>
<path d="M54.4353 21.8411C51.2611 21.8411 48.0593 20.3187 48.0593 16.9152C48.0387 16.1351 48.2309 15.364 48.6153 14.6845C48.9997 14.0051 49.5618 13.4428 50.2416 13.0578C51.7483 12.1499 53.5061 12.0145 54.4353 12.0145C56.394 12.0145 58.1845 12.654 59.3597 13.7501V13.4993C59.3597 11.1868 58.0489 10.1585 55.1133 10.1585C53.5714 10.1585 52.2304 10.3441 50.6986 11.2545L50.4475 11.4025L49.2195 8.41542L49.4154 8.30757C51.0803 7.37708 53.594 6.77515 55.8214 6.77515C60.6053 6.77515 63.355 9.23305 63.355 13.5218V18.5154C63.3252 19.3699 63.5099 20.2183 63.8924 20.9833L64.0833 21.3495H59.9122L59.8419 21.2191C59.6416 20.8522 59.4977 20.4574 59.415 20.0478C58.2272 21.1789 56.4091 21.8411 54.4353 21.8411ZM55.2941 15.0016C54.2896 15.0016 51.9743 15.1897 51.9743 16.9152C51.9743 18.6408 54.2946 18.854 55.2941 18.854C56.6778 18.854 58.5084 18.5354 59.4275 17.0206V16.8024C58.6993 15.611 57.3081 15.0016 55.2941 15.0016Z" fill="#FF2449"/>
<path d="M63.0889 13.5218V18.5154C63.0595 19.41 63.2537 20.2978 63.6539 21.0987H60.0629C59.7871 20.6087 59.6322 20.0602 59.6109 19.4985V19.476C58.6591 20.6071 56.831 21.5903 54.4353 21.5903C51.7684 21.5903 48.3105 20.434 48.3105 16.9152C48.3105 13.3964 51.7684 12.2653 54.4353 12.2653C56.831 12.2653 58.6591 13.2259 59.6109 14.3821V13.4967C59.6109 10.9887 58.1041 9.9052 55.1133 9.9052C53.4182 9.9052 52.0622 10.156 50.5705 11.0363L49.5309 8.52828C51.1582 7.61785 53.599 7.02344 55.8089 7.02344C60.3542 7.02093 63.0889 9.3133 63.0889 13.5218ZM59.6761 16.7447C58.752 15.1445 56.8988 14.7508 55.2941 14.7508C53.8476 14.7508 51.7232 15.1195 51.7232 16.9152C51.7232 18.711 53.8476 19.1048 55.2941 19.1048C56.8988 19.1048 58.752 18.6884 59.6761 17.0983V16.7447Z" fill="#FF2449"/>
<path d="M64.9848 21.3496V7.3045H69.0027V9.46394C70.1353 7.91145 72.0538 7.00854 74.3089 7.00854H74.56V10.7832H74.3089C71.5742 10.7832 69.6908 11.9645 69.0027 14.1139V21.3622L64.9848 21.3496Z" fill="#FF2449"/>
<path d="M65.2359 21.0988V7.55532H68.7516V10.3468C69.7561 8.30523 71.9157 7.24683 74.3089 7.24683V10.5324C71.5968 10.5324 69.4974 11.6886 68.7516 14.0738V21.0988H65.2359Z" fill="#FF2449"/>
<path d="M82.5255 21.8912C77.3022 21.8912 74.1859 19.0646 74.1859 14.3319C74.1859 9.65434 77.2872 6.75 82.2769 6.75C87.1612 6.75 90.0767 9.57659 90.0767 14.3093C90.0935 14.6319 90.0596 14.9552 89.9763 15.2674L89.921 15.4454H78.0983C78.48 17.4895 79.9917 18.4852 82.7089 18.4852C84.6324 18.4852 85.9734 17.9987 87.3345 16.8023L87.5278 16.6318L89.7201 19.2477L89.5519 19.4107C87.8116 21.0786 85.5139 21.8912 82.5255 21.8912ZM82.2995 10.1559C80.823 10.1559 78.9697 10.5723 78.2992 12.506L86.1341 12.4609C85.5842 10.9109 84.3261 10.1559 82.2995 10.1559Z" fill="#FF2449"/>
<path d="M82.7063 18.7362C84.8534 18.7362 86.2094 18.1217 87.4977 16.9806L89.3736 19.2203C87.6333 20.8932 85.3958 21.6305 82.5255 21.6305C77.3951 21.6305 74.437 18.8265 74.437 14.322C74.437 9.81755 77.3725 6.99097 82.2769 6.99097C86.7971 6.99097 89.8256 9.49903 89.8256 14.2995C89.8416 14.5975 89.8111 14.8962 89.7352 15.1848H77.802C78.1184 17.6302 79.8134 18.7362 82.7063 18.7362ZM77.9602 12.757L86.4807 12.7093C85.9382 10.7656 84.5144 9.90533 82.2995 9.90533C80.0168 9.90533 78.4574 10.8383 77.9602 12.757Z" fill="#FF2449"/>
<path d="M98.891 21.8912C93.6677 21.8912 90.5488 19.0646 90.5488 14.3319C90.5488 9.65434 93.6501 6.75 98.6424 6.75C103.527 6.75 106.442 9.57659 106.442 14.3093C106.459 14.6319 106.425 14.9552 106.342 15.2674L106.286 15.4454H94.4613C94.843 17.4895 96.3522 18.4852 99.0718 18.4852C100.995 18.4852 102.336 17.9987 103.697 16.8023L103.891 16.6318L106.083 19.2477L105.915 19.4107C104.177 21.0786 101.879 21.8912 98.891 21.8912ZM98.665 10.1559C97.1884 10.1559 95.3351 10.5723 94.6647 12.506L102.505 12.4609C101.955 10.9109 100.699 10.1559 98.665 10.1559Z" fill="#FF2449"/>
<path d="M99.0718 18.7362C101.219 18.7362 102.588 18.1217 103.863 16.9806L105.739 19.2203C103.999 20.8932 101.761 21.6305 98.891 21.6305C93.7606 21.6305 90.7999 18.8265 90.7999 14.322C90.7999 9.81755 93.738 6.99097 98.6424 6.99097C103.163 6.99097 106.191 9.49903 106.191 14.2995C106.207 14.5975 106.177 14.8962 106.101 15.1848H94.17C94.4839 17.6302 96.1789 18.7362 99.0718 18.7362ZM94.3257 12.757L102.846 12.7093C102.304 10.7656 100.88 9.90533 98.665 9.90533C96.3823 9.90533 94.8229 10.8383 94.3257 12.757Z" fill="#FF2449"/>
<path d="M107.479 21.3496V7.3045H111.485V9.46394C112.617 7.91145 114.538 7.00854 116.793 7.00854H117.044V10.7832H116.793C114.056 10.7832 112.173 11.9645 111.485 14.1139V21.3622L107.479 21.3496Z" fill="#FF2449"/>
<path d="M107.73 21.0988V7.55532H111.234V10.3468C112.251 8.30523 114.398 7.24683 116.793 7.24683V10.5324C114.081 10.5324 111.979 11.6886 111.234 14.0738V21.0988H107.73Z" fill="#FF2449"/>
<path d="M127.032 21.8661C124.942 21.8661 123.096 21.0661 121.858 19.6465V21.3495H117.853V2.64185H121.858V9.02737C123.096 7.60781 124.942 6.80774 127.032 6.80774C131.198 6.80774 133.995 9.83497 133.995 14.3319C133.995 18.8289 131.198 21.8661 127.032 21.8661ZM121.881 16.1478C122.858 17.5021 124.294 18.1918 126.15 18.1918C128.729 18.1918 130.148 16.8199 130.148 14.3319C130.148 11.8439 128.729 10.4745 126.15 10.4745C124.294 10.4745 122.858 11.1617 121.881 12.5186V16.1478Z" fill="#FF2449"/>
<path d="M133.744 14.3321C133.744 18.7613 130.982 21.6055 127.032 21.6055C124.478 21.6055 122.624 20.3991 121.607 18.8993V21.0888H118.104V2.89282H121.607V9.75739C122.624 8.25255 124.478 7.05119 127.032 7.05119C130.987 7.05119 133.744 9.90536 133.744 14.3321ZM130.399 14.3321C130.399 11.6761 128.862 10.2239 126.15 10.2239C124.319 10.2239 122.715 10.8885 121.63 12.4385V16.2282C122.715 17.7782 124.319 18.4428 126.15 18.4428C128.862 18.4428 130.399 16.9906 130.399 14.3321Z" fill="#FF2449"/>
<path d="M140.657 21.841C137.016 21.841 134.756 19.3706 134.756 15.3903V7.29175H138.774V15.1445C138.774 17.2488 139.753 18.3147 141.687 18.3147C143.492 18.3147 144.891 17.4093 145.843 15.6235V7.29175H149.848V21.3494H145.83V19.5336C144.678 20.9933 142.802 21.841 140.657 21.841Z" fill="#FF2449"/>
<path d="M149.585 7.54272V21.0988H146.081V18.7111C145.064 20.5094 143.053 21.5904 140.657 21.5904C136.928 21.5904 135.007 19.0071 135.007 15.3904V7.54272H138.523V15.1447C138.523 17.3593 139.608 18.5657 141.687 18.5657C143.54 18.5657 145.077 17.6301 146.094 15.6864V7.54272H149.585Z" fill="#FF2449"/>
<path d="M157.718 21.8661C153.552 21.8661 150.755 18.8389 150.755 14.342C150.755 9.845 153.552 6.81777 157.718 6.81777C159.808 6.81777 161.653 7.61784 162.891 9.0374V2.64185H166.909V21.3495H162.891V19.6465C161.653 21.0661 159.808 21.8661 157.718 21.8661ZM158.6 10.4745C156.021 10.4745 154.602 11.8439 154.602 14.3319C154.602 16.8199 156.021 18.1918 158.6 18.1918C160.456 18.1918 161.889 17.5021 162.869 16.1478V12.5186C161.889 11.1617 160.466 10.4745 158.6 10.4745Z" fill="#FF2449"/>
<path d="M163.143 9.75739V2.89282H166.658V21.0988H163.143V18.9093C162.138 20.4141 160.272 21.6155 157.718 21.6155C153.763 21.6155 151.006 18.7613 151.006 14.3421C151.006 9.92292 153.768 7.06875 157.718 7.06875C160.272 7.05119 162.125 8.25506 163.143 9.75739ZM163.12 16.2282V12.4385C162.035 10.8885 160.43 10.2239 158.6 10.2239C155.888 10.2239 154.351 11.6761 154.351 14.3321C154.351 16.9881 155.888 18.4428 158.6 18.4428C160.43 18.4428 162.035 17.7782 163.12 16.2282Z" fill="#FF2449"/>
<path d="M174.779 21.8661C170.613 21.8661 167.816 18.8389 167.816 14.342C167.816 9.845 170.613 6.81777 174.779 6.81777C176.869 6.81777 178.715 7.61784 179.953 9.0374V2.64185H183.958V21.3495H179.953V19.6465C178.715 21.0661 176.869 21.8661 174.779 21.8661ZM175.661 10.4745C173.082 10.4745 171.663 11.8439 171.663 14.3319C171.663 16.8199 173.082 18.1918 175.661 18.1918C177.517 18.1918 178.951 17.5021 179.93 16.1478V12.5186C178.951 11.1617 177.517 10.4745 175.661 10.4745Z" fill="#FF2449"/>
<path d="M180.204 9.75739V2.89282H183.707V21.0988H180.204V18.9093C179.187 20.4141 177.333 21.6155 174.779 21.6155C170.824 21.6155 168.067 18.7613 168.067 14.3421C168.067 9.92292 170.829 7.06875 174.779 7.06875C177.333 7.05119 179.187 8.25506 180.204 9.75739ZM180.181 16.2282V12.4385C179.096 10.8885 177.492 10.2239 175.661 10.2239C172.949 10.2239 171.412 11.6761 171.412 14.3321C171.412 16.9881 172.949 18.4428 175.661 18.4428C177.492 18.4428 179.096 17.7782 180.181 16.2282Z" fill="#FF2449"/>
<path d="M186.544 28.0184C185.522 28.0201 184.513 27.7888 183.594 27.342C182.675 26.8952 181.87 26.2447 181.241 25.4401L179.915 23.7572H184.558L184.633 23.8399C184.891 24.1299 185.207 24.3617 185.561 24.52C185.916 24.6782 186.3 24.7593 186.688 24.7579C187.189 24.7596 187.681 24.6251 188.111 24.3688C188.542 24.1126 188.894 23.7442 189.131 23.3032L190.851 20.2534L184.412 7.29175H188.659L192.928 16.1352L197.064 7.29175H201.25L192.609 24.2814C192.05 25.4087 191.185 26.3566 190.113 27.0173C189.04 27.6779 187.804 28.0248 186.544 28.0184Z" fill="#FF2449"/>
<path d="M200.841 7.54272L192.383 24.1687C191.893 25.15 191.162 25.9916 190.259 26.6152C189.356 27.2389 188.31 27.6243 187.217 27.7357C186.125 27.847 185.022 27.6807 184.012 27.2522C183.001 26.8237 182.115 26.1469 181.437 25.2848L180.432 24.0082H184.45C184.773 24.3671 185.178 24.6431 185.631 24.8129C186.083 24.9826 186.57 25.0412 187.05 24.9837C187.53 24.9261 187.989 24.7541 188.388 24.4822C188.787 24.2103 189.115 23.8464 189.344 23.4213L191.137 20.2611L184.824 7.54272H188.508L192.938 16.7197L197.232 7.54272H200.841Z" fill="#FF2449"/>
<path d="M14.0175 28.5C11.2451 28.5 8.53494 27.6789 6.22978 26.1406C3.92461 24.6022 2.12795 22.4157 1.067 19.8576C0.0060431 17.2994 -0.27155 14.4845 0.269318 11.7687C0.810187 9.05301 2.14523 6.55845 4.10561 4.60051C6.066 2.64258 8.56368 1.30921 11.2828 0.769012C14.0019 0.228819 16.8204 0.506066 19.3818 1.56569C21.9431 2.62532 24.1324 4.41973 25.6726 6.72202C27.2129 9.02431 28.035 11.7311 28.035 14.5C28.031 18.2118 26.5529 21.7705 23.925 24.3951C21.297 27.0198 17.7339 28.496 14.0175 28.5ZM14.0175 5.14744C12.1648 5.14745 10.3537 5.69617 8.81333 6.72423C7.27292 7.75229 6.07235 9.2135 5.36348 10.9231C4.6546 12.6326 4.46926 14.5137 4.83088 16.3285C5.1925 18.1433 6.08485 19.8102 7.39507 21.1184C8.70529 22.4267 10.3745 23.3175 12.1917 23.6781C14.0088 24.0388 15.8922 23.8532 17.6037 23.1448C19.3152 22.4363 20.778 21.2369 21.8069 19.6981C22.8358 18.1593 23.3848 16.3504 23.3843 14.5C23.3816 12.0199 22.3938 9.64224 20.6377 7.88879C18.8816 6.13535 16.5007 5.14944 14.0175 5.14744Z" fill="#FF2449"/>
<path d="M11.1095 19.7568C10.6604 19.757 10.2208 19.6273 9.84383 19.3833C9.4669 19.1393 9.16879 18.7915 8.98553 18.3819C8.80226 17.9724 8.74169 17.5185 8.81113 17.0753C8.88057 16.6321 9.07704 16.2185 9.37682 15.8844L14.6955 9.93776C14.8995 9.71017 15.1464 9.52493 15.422 9.39263C15.6976 9.26032 15.9967 9.18353 16.302 9.16664C16.6074 9.14976 16.9131 9.19311 17.2017 9.29422C17.4903 9.39533 17.7561 9.55222 17.9839 9.75593C18.2118 9.95964 18.3973 10.2062 18.5298 10.4815C18.6622 10.7568 18.7391 11.0554 18.756 11.3604C18.7729 11.6654 18.7295 11.9707 18.6283 12.2589C18.5271 12.5472 18.37 12.8126 18.166 13.0402L12.8473 18.9818C12.6289 19.2264 12.3612 19.4219 12.0616 19.5555C11.7621 19.689 11.4376 19.7577 11.1095 19.7568Z" fill="#FF2449"/>
</g>
<defs>
<clipPath id="clip0_339_4847">
<rect width="201.25" height="28" fill="white" transform="translate(0 0.5)"/>
</clipPath>
</defs>
</svg>
