<svg width="144" height="21" viewBox="0 0 144 21" fill="none" xmlns="http://www.w3.org/2000/svg">
<path d="M29.2753 15.7795C25.6879 15.7795 23.4619 13.7103 23.4619 10.38C23.4619 7.04963 25.6897 4.96436 29.2753 4.96436C31.6072 4.96436 33.5175 5.99983 34.391 7.73397L34.4771 7.90416L31.835 9.031L31.7596 8.87693C31.3273 7.98119 30.4951 7.519 29.2915 7.519C27.3812 7.519 26.2422 8.59388 26.2422 10.3854C26.2422 12.1768 27.3812 13.2195 29.2915 13.2195C30.5094 13.2195 31.3614 12.7447 31.826 11.8078L31.9013 11.6537L34.522 12.7985L34.4394 12.9669C33.5767 14.7297 31.6448 15.7795 29.2753 15.7795Z" fill="#FF2449"/>
<path d="M29.2752 15.6004C25.7882 15.6004 23.6411 13.5796 23.6411 10.38C23.6411 7.18046 25.7936 5.14355 29.2752 5.14355C31.8097 5.14355 33.4886 6.33847 34.2312 7.81464L31.9281 8.79816C31.4115 7.72327 30.4267 7.3399 29.2967 7.3399C27.4402 7.3399 26.068 8.34133 26.068 10.3854C26.0626 12.3847 27.4438 13.3987 29.2913 13.3987C30.4214 13.3987 31.4438 12.9938 31.9819 11.8867L34.2742 12.8881C33.5424 14.4055 31.842 15.6004 29.2752 15.6004Z" fill="#FF2449"/>
<path d="M38.8825 15.7436C36.6152 15.7436 34.3282 14.6561 34.3282 12.2251C34.3135 11.6678 34.4508 11.1171 34.7253 10.6317C34.9999 10.1464 35.4014 9.74477 35.887 9.46982C36.9632 8.8213 38.2188 8.72456 38.8825 8.72456C40.2816 8.72456 41.5605 9.18139 42.3999 9.96426V9.78512C42.3999 8.13338 41.4636 7.39887 39.3668 7.39887C38.2654 7.39887 37.3076 7.53144 36.2134 8.18175L36.034 8.28744L35.1569 6.1538L35.2968 6.07677C36.4861 5.41213 38.2816 4.98218 39.8726 4.98218C43.2896 4.98218 45.2537 6.73782 45.2537 9.80124V13.3681C45.2324 13.9784 45.3644 14.5845 45.6376 15.1309L45.7739 15.3924H42.7945L42.7443 15.2993C42.6013 15.0372 42.4985 14.7552 42.4394 14.4627C41.591 15.2706 40.2923 15.7436 38.8825 15.7436ZM39.4959 10.8582C38.7784 10.8582 37.1246 10.9926 37.1246 12.2251C37.1246 13.4576 38.782 13.6099 39.4959 13.6099C40.4842 13.6099 41.7919 13.3824 42.4484 12.3003V12.1445C41.9282 11.2935 40.9345 10.8582 39.4959 10.8582Z" fill="#FF2449"/>
<path d="M45.0636 9.80137V13.3682C45.0426 14.0072 45.1813 14.6414 45.4672 15.2134H42.9021C42.7052 14.8634 42.5945 14.4716 42.5793 14.0705V14.0543C41.8995 14.8623 40.5936 15.5645 38.8824 15.5645C36.9775 15.5645 34.5076 14.7387 34.5076 12.2252C34.5076 9.7118 36.9775 8.90385 38.8824 8.90385C40.5936 8.90385 41.8995 9.58998 42.5793 10.4158V9.78346C42.5793 7.99199 41.5031 7.21807 39.3667 7.21807C38.156 7.21807 37.1874 7.39722 36.1219 8.02603L35.3793 6.23455C36.5416 5.58425 38.2851 5.15967 39.8636 5.15967C43.1102 5.15788 45.0636 6.79528 45.0636 9.80137ZM42.6259 12.1034C41.9658 10.9605 40.6421 10.6792 39.4959 10.6792C38.4627 10.6792 36.9452 10.9425 36.9452 12.2252C36.9452 13.5079 38.4627 13.7892 39.4959 13.7892C40.6421 13.7892 41.9658 13.4918 42.6259 12.356V12.1034Z" fill="#FF2449"/>
<path d="M46.4177 15.3926V5.36032H49.2877V6.90278C50.0966 5.79386 51.467 5.14893 53.0778 5.14893H53.2572V7.84509H53.0778C51.1244 7.84509 49.7791 8.68888 49.2877 10.2242V15.4015L46.4177 15.3926Z" fill="#FF2449"/>
<path d="M46.5972 15.2134V5.53944H49.1084V7.53335C49.8259 6.07509 51.3684 5.31909 53.0779 5.31909V7.66592C51.1406 7.66592 49.6411 8.49179 49.1084 10.1955V15.2134H46.5972Z" fill="#FF2449"/>
<path d="M58.9469 15.7795C55.216 15.7795 52.99 13.7605 52.99 10.38C52.99 7.03888 55.2052 4.96436 58.7693 4.96436C62.2581 4.96436 64.3406 6.98335 64.3406 10.3639C64.3526 10.5943 64.3284 10.8252 64.2689 11.0482L64.2294 11.1754H55.7846C56.0572 12.6354 57.1371 13.3467 59.0778 13.3467C60.4518 13.3467 61.4097 12.9991 62.3819 12.1446L62.52 12.0228L64.0859 13.8913L63.9657 14.0077C62.7227 15.199 61.0814 15.7795 58.9469 15.7795ZM58.7855 7.39718C57.7308 7.39718 56.407 7.69456 55.9281 9.07578L61.5245 9.04354C61.1317 7.93641 60.233 7.39718 58.7855 7.39718Z" fill="#FF2449"/>
<path d="M59.0759 13.5259C60.6095 13.5259 61.5781 13.087 62.4983 12.2719L63.8382 13.8717C62.5952 15.0666 60.997 15.5933 58.9467 15.5933C55.2822 15.5933 53.1692 13.5904 53.1692 10.3729C53.1692 7.15546 55.266 5.13647 58.7692 5.13647C61.9978 5.13647 64.1611 6.92795 64.1611 10.3568C64.1725 10.5697 64.1508 10.783 64.0965 10.9892H55.5728C55.7988 12.7359 57.0095 13.5259 59.0759 13.5259ZM55.6858 9.25507L61.7718 9.22103C61.3844 7.83264 60.3674 7.21817 58.7853 7.21817C57.1548 7.21817 56.0409 7.88459 55.6858 9.25507Z" fill="#FF2449"/>
<path d="M70.6365 15.7795C66.9055 15.7795 64.6777 13.7605 64.6777 10.38C64.6777 7.03888 66.893 4.96436 70.4589 4.96436C73.9476 4.96436 76.0301 6.98335 76.0301 10.3639C76.0421 10.5943 76.0179 10.8252 75.9584 11.0482L75.9189 11.1754H67.4723C67.745 12.6354 68.823 13.3467 70.7656 13.3467C72.1396 13.3467 73.0974 12.9991 74.0696 12.1446L74.2077 12.0228L75.7736 13.8913L75.6535 14.0077C74.4122 15.199 72.771 15.7795 70.6365 15.7795ZM70.475 7.39718C69.4203 7.39718 68.0966 7.69456 67.6176 9.07578L73.2176 9.04354C72.8248 7.93641 71.9279 7.39718 70.475 7.39718Z" fill="#FF2449"/>
<path d="M70.7657 13.5259C72.2993 13.5259 73.2769 13.087 74.1881 12.2719L75.528 13.8717C74.2849 15.0666 72.6867 15.5933 70.6365 15.5933C66.972 15.5933 64.8572 13.5904 64.8572 10.3729C64.8572 7.15546 66.9558 5.13647 70.4589 5.13647C73.6876 5.13647 75.8509 6.92795 75.8509 10.3568C75.8623 10.5697 75.8405 10.783 75.7863 10.9892H67.2643C67.4886 12.7359 68.6993 13.5259 70.7657 13.5259ZM67.3756 9.25507L73.4616 9.22103C73.0742 7.83264 72.0571 7.21817 70.4751 7.21817C68.8446 7.21817 67.7307 7.88459 67.3756 9.25507Z" fill="#FF2449"/>
<path d="M76.771 15.3926V5.36032H79.632V6.90278C80.4409 5.79386 81.8131 5.14893 83.4239 5.14893H83.6033V7.84509H83.4239C81.4687 7.84509 80.1234 8.68888 79.632 10.2242V15.4015L76.771 15.3926Z" fill="#FF2449"/>
<path d="M76.9504 15.2134V5.53944H79.4527V7.53335C80.1791 6.07509 81.7127 5.31909 83.424 5.31909V7.66592C81.4867 7.66592 79.9854 8.49179 79.4527 10.1955V15.2134H76.9504Z" fill="#FF2449"/>
<path d="M90.7369 15.7617C89.2446 15.7617 87.9262 15.1902 87.0419 14.1762V15.3926H84.1809V2.03003H87.0419V6.59112C87.9262 5.57714 89.2446 5.00567 90.7369 5.00567C93.7127 5.00567 95.7109 7.16797 95.7109 10.3801C95.7109 13.5922 93.7127 15.7617 90.7369 15.7617ZM87.058 11.6771C87.7558 12.6445 88.7818 13.1372 90.1073 13.1372C91.9495 13.1372 92.9629 12.1572 92.9629 10.3801C92.9629 8.60294 91.9495 7.6248 90.1073 7.6248C88.7818 7.6248 87.7558 8.11566 87.058 9.08485V11.6771Z" fill="#FF2449"/>
<path d="M95.5314 10.3799C95.5314 13.5436 93.5583 15.5752 90.7368 15.5752C88.9126 15.5752 87.5888 14.7135 86.8623 13.6422V15.2061H84.3601V2.20898H86.8623V7.11224C87.5888 6.03736 88.9126 5.17925 90.7368 5.17925C93.5619 5.17925 95.5314 7.21794 95.5314 10.3799ZM93.1421 10.3799C93.1421 8.48272 92.0444 7.44546 90.1072 7.44546C88.7996 7.44546 87.6534 7.9202 86.8785 9.02733V11.7342C87.6534 12.8414 88.7996 13.3161 90.1072 13.3161C92.0444 13.3161 93.1421 12.2789 93.1421 10.3799Z" fill="#FF2449"/>
<path d="M100.47 15.7437C97.8687 15.7437 96.2544 13.9791 96.2544 11.136V5.35132H99.1243V10.9604C99.1243 12.4635 99.8239 13.2248 101.205 13.2248C102.495 13.2248 103.494 12.5781 104.174 11.3026V5.35132H107.035V15.3925H104.165V14.0955C103.341 15.1381 102.001 15.7437 100.47 15.7437Z" fill="#FF2449"/>
<path d="M106.846 5.53052V15.2134H104.344V13.5079C103.617 14.7924 102.181 15.5646 100.469 15.5646C97.8058 15.5646 96.4336 13.7193 96.4336 11.136V5.53052H98.9448V10.9605C98.9448 12.5423 99.7197 13.404 101.205 13.404C102.529 13.404 103.626 12.7358 104.353 11.3474V5.53052H106.846Z" fill="#FF2449"/>
<path d="M112.656 15.7617C109.68 15.7617 107.682 13.5994 107.682 10.3872C107.682 7.17514 109.68 5.01283 112.656 5.01283C114.148 5.01283 115.467 5.58431 116.351 6.59828V2.03003H119.221V15.3926H116.351V14.1762C115.467 15.1902 114.148 15.7617 112.656 15.7617ZM113.286 7.6248C111.444 7.6248 110.43 8.60294 110.43 10.3801C110.43 12.1572 111.444 13.1372 113.286 13.1372C114.611 13.1372 115.635 12.6445 116.335 11.6771V9.08485C115.635 8.11566 114.618 7.6248 113.286 7.6248Z" fill="#FF2449"/>
<path d="M116.53 7.11224V2.20898H119.042V15.2133H116.53V13.6493C115.813 14.7242 114.48 15.5823 112.656 15.5823C109.831 15.5823 107.861 13.5436 107.861 10.3871C107.861 7.23048 109.834 5.19179 112.656 5.19179C114.48 5.17925 115.804 6.03915 116.53 7.11224ZM116.514 11.7342V9.02733C115.739 7.9202 114.593 7.44546 113.286 7.44546C111.348 7.44546 110.251 8.48272 110.251 10.3799C110.251 12.2771 111.348 13.3161 113.286 13.3161C114.593 13.3161 115.739 12.8414 116.514 11.7342Z" fill="#FF2449"/>
<path d="M124.843 15.7617C121.867 15.7617 119.869 13.5994 119.869 10.3872C119.869 7.17514 121.867 5.01283 124.843 5.01283C126.335 5.01283 127.653 5.58431 128.538 6.59828V2.03003H131.399V15.3926H128.538V14.1762C127.653 15.1902 126.335 15.7617 124.843 15.7617ZM125.472 7.6248C123.63 7.6248 122.617 8.60294 122.617 10.3801C122.617 12.1572 123.63 13.1372 125.472 13.1372C126.798 13.1372 127.822 12.6445 128.522 11.6771V9.08485C127.822 8.11566 126.798 7.6248 125.472 7.6248Z" fill="#FF2449"/>
<path d="M128.717 7.11224V2.20898H131.219V15.2133H128.717V13.6493C127.99 14.7242 126.667 15.5823 124.842 15.5823C122.017 15.5823 120.048 13.5436 120.048 10.3871C120.048 7.23048 122.021 5.19179 124.842 5.19179C126.667 5.17925 127.99 6.03915 128.717 7.11224ZM128.701 11.7342V9.02733C127.926 7.9202 126.78 7.44546 125.472 7.44546C123.535 7.44546 122.437 8.48272 122.437 10.3799C122.437 12.2771 123.535 13.3161 125.472 13.3161C126.78 13.3161 127.926 12.8414 128.701 11.7342Z" fill="#FF2449"/>
<path d="M133.246 20.156C132.516 20.1573 131.795 19.9921 131.139 19.6729C130.482 19.3538 129.907 18.8891 129.458 18.3144L128.511 17.1123H131.827L131.881 17.1715C132.065 17.3785 132.291 17.5441 132.544 17.6572C132.797 17.7702 133.071 17.8282 133.348 17.8271C133.706 17.8283 134.058 17.7323 134.365 17.5492C134.673 17.3662 134.924 17.1031 135.094 16.7881L136.322 14.6096L131.723 5.35132H134.756L137.806 11.6681L140.76 5.35132H143.75L137.578 17.4868C137.178 18.292 136.561 18.9691 135.795 19.441C135.029 19.9129 134.146 20.1606 133.246 20.156Z" fill="#FF2449"/>
<path d="M143.458 5.53052L137.416 17.4062C137.066 18.1071 136.545 18.7083 135.899 19.1537C135.254 19.5992 134.507 19.8745 133.727 19.954C132.946 20.0336 132.159 19.9148 131.437 19.6087C130.715 19.3027 130.082 18.8192 129.598 18.2034L128.88 17.2915H131.75C131.981 17.5479 132.27 17.745 132.593 17.8663C132.917 17.9876 133.264 18.0295 133.607 17.9883C133.95 17.9472 134.278 17.8244 134.563 17.6302C134.848 17.4359 135.082 17.176 135.246 16.8723L136.527 14.6151L132.017 5.53052H134.649L137.813 12.0855L140.88 5.53052H143.458Z" fill="#FF2449"/>
<path d="M10.0125 20.5C8.03223 20.5 6.09641 19.9135 4.44986 18.8147C2.80331 17.7159 1.51998 16.1541 0.762161 14.3268C0.0043383 12.4996 -0.193943 10.4889 0.192392 8.5491C0.578727 6.60929 1.53233 4.82746 2.9326 3.42894C4.33288 2.03041 6.11693 1.078 8.05917 0.692152C10.0014 0.306299 12.0146 0.504333 13.8441 1.26121C15.6737 2.01809 17.2374 3.29981 18.3376 4.9443C19.4378 6.58879 20.025 8.52219 20.025 10.5C20.0222 13.1513 18.9664 15.6932 17.0893 17.5679C15.2122 19.4427 12.6671 20.4972 10.0125 20.5ZM10.0125 3.8196C8.68917 3.8196 7.39555 4.21155 6.29526 4.94588C5.19496 5.68021 4.33742 6.72393 3.83108 7.94505C3.32474 9.16616 3.19235 10.5098 3.45065 11.8061C3.70895 13.1024 4.34634 14.293 5.28221 15.2275C6.21808 16.1619 7.41039 16.7982 8.70835 17.0558C10.0063 17.3134 11.3516 17.1809 12.5741 16.6748C13.7966 16.1688 14.8414 15.312 15.5764 14.2129C16.3113 13.1138 16.7034 11.8217 16.7031 10.5C16.7012 8.72852 15.9956 7.03017 14.7412 5.77771C13.4869 4.52525 11.7862 3.82103 10.0125 3.8196Z" fill="#FF2449"/>
<path d="M7.93537 14.2549C7.61454 14.2551 7.30053 14.1624 7.03129 13.9881C6.76206 13.8139 6.54912 13.5654 6.41822 13.2729C6.28732 12.9803 6.24405 12.6562 6.29365 12.3396C6.34325 12.023 6.48359 11.7275 6.69771 11.4889L10.4968 7.24133C10.6425 7.07876 10.8188 6.94645 11.0157 6.85195C11.2126 6.75744 11.4262 6.70259 11.6443 6.69053C11.8624 6.67847 12.0808 6.70943 12.2869 6.78165C12.493 6.85387 12.6829 6.96594 12.8457 7.11145C13.0084 7.25695 13.1409 7.43306 13.2355 7.6297C13.3302 7.82634 13.3851 8.03967 13.3972 8.25751C13.4092 8.47535 13.3782 8.69344 13.3059 8.89931C13.2336 9.10518 13.1214 9.29482 12.9757 9.45738L9.17662 13.7014C9.02066 13.876 8.8294 14.0157 8.61544 14.1111C8.40148 14.2065 8.16969 14.2555 7.93537 14.2549Z" fill="#FF2449"/>
</svg>
