<svg width="154" height="32" viewBox="0 0 154 32" fill="none" xmlns="http://www.w3.org/2000/svg">
<g opacity="0.5">
<path opacity="0.2" d="M27.0143 18.1069H31.532C30.9768 21.8442 29.0285 25.2332 26.0782 27.5936C23.1279 29.9541 19.394 31.1112 15.626 30.8328C11.8579 30.5545 8.33458 28.8612 5.7632 26.0928C3.19181 23.3244 1.7627 19.6859 1.7627 15.9076C1.7627 12.1293 3.19181 8.49075 5.7632 5.72239C8.33458 2.95404 11.8579 1.26073 15.626 0.982351C19.394 0.703975 23.1279 1.86113 26.0782 4.22156C29.0285 6.58199 30.9768 9.97099 31.532 13.7083H27.0143C26.4767 11.5182 25.1556 9.60074 23.3006 8.31832C21.4456 7.0359 19.1851 6.47728 16.9463 6.74802C14.7074 7.01876 12.6453 8.10011 11.1494 9.78775C9.65357 11.4754 8.82762 13.6524 8.82762 15.9076C8.82762 18.1627 9.65357 20.3398 11.1494 22.0274C12.6453 23.7151 14.7074 24.7964 16.9463 25.0672C19.1851 25.3379 21.4456 24.7793 23.3006 23.4969C25.1556 22.2144 26.4767 20.297 27.0143 18.1069Z" fill="#1A0004"/>
<path opacity="0.2" d="M18.0083 18.0175V20.8605C18.6744 20.8835 19.3383 20.7723 19.9604 20.5333C20.5826 20.2944 21.1502 19.9326 21.6296 19.4696C22.1089 19.0065 22.4902 18.4517 22.7505 17.8382C23.0109 17.2247 23.1451 16.5651 23.1451 15.8986C23.1451 15.2322 23.0109 14.5725 22.7505 13.959C22.4902 13.3455 22.1089 12.7907 21.6296 12.3277C21.1502 11.8647 20.5826 11.5029 19.9604 11.2639C19.3383 11.025 18.6744 10.9137 18.0083 10.9368V13.7858C18.2854 13.7858 18.5597 13.8403 18.8157 13.9464C19.0717 14.0524 19.3043 14.2078 19.5002 14.4037C19.6961 14.5997 19.8516 14.8323 19.9576 15.0882C20.0636 15.3442 20.1182 15.6186 20.1182 15.8957C20.1182 16.1727 20.0636 16.4471 19.9576 16.7031C19.8516 16.9591 19.6961 17.1917 19.5002 17.3876C19.3043 17.5835 19.0717 17.7389 18.8157 17.8449C18.5597 17.951 18.2854 18.0055 18.0083 18.0055" fill="#1A0004"/>
<path opacity="0.2" d="M48.5066 24.2697C52.1959 24.2697 55.0627 22.3148 56.1773 19.7102L51.7191 17.8805C51.4878 18.5111 51.068 19.0554 50.5168 19.4393C49.9655 19.8231 49.3094 20.028 48.6377 20.0261C46.5516 20.0261 44.9782 18.2977 44.9782 15.854C44.9782 13.4103 46.4205 11.6819 48.5066 11.6819C49.195 11.6652 49.8698 11.8756 50.4268 12.2806C50.9837 12.6856 51.3918 13.2628 51.5879 13.9229L56.0461 12.0634C55.4132 10.642 54.3694 9.44265 53.0492 8.61947C51.7289 7.79629 50.1925 7.387 48.6377 7.44425C43.8219 7.45617 40.061 10.8236 40.061 15.86C40.061 20.8963 43.6967 24.2697 48.5066 24.2697Z" fill="#1A0004"/>
<path opacity="0.2" d="M70.8394 7.84353L70.3864 9.28588C69.7846 8.6699 69.0592 8.18836 68.258 7.87298C67.4567 7.5576 66.5977 7.41553 65.7375 7.45612C62.0839 7.45612 58.1025 10.311 58.1025 15.8659C58.1025 20.9976 61.5654 24.2697 65.517 24.2697C68.2765 24.2697 69.6891 23.1134 70.3864 22.3147L71.0539 23.8823H75.3572V7.84353H70.8394ZM66.7984 20.0678C64.6468 20.0678 63.0077 18.4287 63.0077 15.8957C63.0077 13.3626 64.6468 11.6878 66.7984 11.6878C68.95 11.6878 70.5831 13.2911 70.5831 15.8957C70.5831 18.5003 68.9142 20.0678 66.7984 20.0678Z" fill="#1A0004"/>
<path opacity="0.2" d="M90.0251 0.94165V9.41697C89.2563 8.41567 87.7186 7.45609 85.3405 7.45609C81.6511 7.45609 77.5923 10.0905 77.5923 15.8658C77.5923 21.23 81.1684 24.2696 85.1319 24.2696C86.1191 24.3004 87.1 24.101 87.9968 23.6872C88.8937 23.2735 89.682 22.6566 90.2993 21.8856L90.8476 23.9061H94.8946V0.94165H90.0251ZM86.306 20.0141C84.1544 20.0141 82.4558 18.3751 82.4558 15.842C82.4558 13.3089 84.1544 11.6699 86.306 11.6699C88.4576 11.6699 90.1205 13.2732 90.1205 15.842C90.1205 18.4108 88.4517 20.0379 86.306 20.0379V20.0141Z" fill="#1A0004"/>
<path opacity="0.2" d="M109.884 7.84356L109.437 9.28592C108.834 8.67039 108.107 8.18922 107.305 7.8739C106.503 7.55859 105.643 7.41623 104.782 7.45616C101.123 7.45616 97.1475 10.3111 97.1475 15.8659C97.1475 20.9976 100.61 24.2697 104.556 24.2697C107.315 24.2697 108.764 23.1134 109.437 22.3148L110.111 23.8823H114.408V7.84356H109.884ZM105.843 20.0678C103.692 20.0678 102.059 18.4288 102.059 15.8957C102.059 13.3627 103.692 11.6879 105.843 11.6879C107.995 11.6879 109.628 13.2911 109.628 15.8957C109.628 18.5003 107.959 20.0678 105.843 20.0678Z" fill="#1A0004"/>
<path opacity="0.2" d="M117.459 23.8823H122.311V15.7646C122.311 13.0051 123.688 11.7892 125.166 11.7892C126.769 11.7892 127.735 12.8143 127.735 14.7097V23.8823H132.61V13.7083C132.61 9.53625 130.226 7.48596 127.091 7.48596C124.707 7.48596 122.824 8.70779 122.055 9.98922L121.506 7.87337H117.436L117.459 23.8823Z" fill="#1A0004"/>
<path opacity="0.2" d="M147.344 7.84356L146.897 9.28592C146.293 8.67039 145.567 8.18922 144.765 7.8739C143.963 7.55859 143.103 7.41623 142.242 7.45616C138.582 7.45616 134.607 10.3111 134.607 15.8659C134.607 20.9976 138.07 24.2697 142.015 24.2697C144.775 24.2697 146.187 23.1134 146.897 22.3148L147.57 23.8823H151.867V7.84356H147.344ZM143.297 20.0678C141.151 20.0678 139.512 18.4288 139.512 15.8957C139.512 13.3627 141.151 11.6879 143.297 11.6879C145.442 11.6879 147.087 13.2911 147.087 15.8957C147.087 18.5003 145.437 20.0678 143.315 20.0678H143.297Z" fill="#1A0004"/>
</g>
</svg>
