<svg width="108" height="32" viewBox="0 0 108 32" fill="none" xmlns="http://www.w3.org/2000/svg">
<path d="M11.4118 3.17568L4.16499 8.27C2.93459 9.13491 2.22903 10.4935 2.22903 11.9975C2.22903 13.082 2.59593 14.091 3.262 14.8938L11.4118 9.16456V3.17568ZM3.262 17.1063C2.59593 17.9091 2.22903 18.918 2.22903 20.0026C2.22903 21.5064 2.93459 22.8651 4.16499 23.7299L11.4118 28.8242V22.8353L3.262 17.1063ZM13.0613 32L3.21647 25.0793C1.54062 23.9013 0.57959 22.0508 0.57959 20.0026C0.57959 18.4993 1.09741 17.1025 2.03511 15.9999C1.09741 14.8974 0.57959 13.5008 0.57959 11.9975C0.57959 9.94909 1.54062 8.09871 3.21647 6.92057L13.0613 3.43323e-05V10.0213L4.55635 15.9999L13.0613 21.9787V32Z" fill="#E8E5E6"/>
<g opacity="0.600006">
<path d="M11.7623 23.0814L3.21647 17.0738C1.54061 15.8959 0.57959 14.0455 0.57959 11.9971C0.57959 9.94871 1.54061 8.09832 3.21647 6.92033L4.16499 8.26962C2.93458 9.13453 2.22903 10.4932 2.22903 11.9971C2.22903 13.5009 2.93458 14.8595 4.16499 15.7246L12.7108 21.732L11.7623 23.0814Z" fill="#E8E5E6"/>
</g>
<path d="M3.21647 25.0791C1.54076 23.9011 0.57959 22.0506 0.57959 20.0023C0.57959 17.954 1.54076 16.1034 3.21647 14.9256L11.7623 8.91801L12.7108 10.2674L4.16499 16.2749C2.93473 17.1398 2.22903 18.4983 2.22903 20.0023C2.22903 21.5062 2.93473 22.8649 4.16499 23.7297L3.21647 25.0791Z" fill="#E8E5E6"/>
<path d="M32.9359 13.0313C31.5269 11.7172 30.1211 11.0601 28.7184 11.0601C27.3472 11.0601 26.3001 11.4786 25.5767 12.3158C24.853 13.153 24.4914 14.374 24.4914 15.9789C24.4914 17.571 24.853 18.7858 25.5767 19.6229C26.3001 20.4601 27.3472 20.8788 28.7184 20.8788C30.0958 20.8788 31.5015 20.2154 32.9359 18.8884V21.4852C32.2597 21.9338 31.5664 22.2719 30.8555 22.4992C30.1447 22.7268 29.3912 22.8406 28.5952 22.8406C27.5906 22.8406 26.6934 22.689 25.9036 22.3856C25.1136 22.0823 24.4314 21.6179 23.8565 20.9924C22.7002 19.7603 22.1221 18.0893 22.1221 15.9789C22.1221 13.8559 22.7002 12.1784 23.8565 10.9463C25.0063 9.708 26.586 9.08873 28.5952 9.08873C30.1936 9.08873 31.6406 9.53741 32.9359 10.4345V13.0313Z" fill="#E8E5E6"/>
<path d="M40.0432 17.7891C39.4303 17.7891 38.9185 17.824 38.5079 17.8932C38.097 17.9629 37.778 18.0609 37.5506 18.1872C37.1462 18.4274 36.944 18.8443 36.944 19.4381C36.944 19.912 37.1035 20.2863 37.4226 20.5613C37.7416 20.836 38.1729 20.9735 38.7164 20.9735C39.5125 20.9735 40.1379 20.6987 40.5929 20.1489C41.073 19.574 41.3131 18.8159 41.3131 17.8743V17.7891H40.0432ZM42.6021 22.5847H41.3131V21.7032C40.9531 22.095 40.528 22.3823 40.0384 22.5657C39.5487 22.7488 38.9689 22.8406 38.2993 22.8406C37.7623 22.8406 37.2852 22.7647 36.8683 22.6131C36.4512 22.4614 36.0878 22.2372 35.7782 21.9403C35.1463 21.3464 34.8306 20.5439 34.8306 19.533C34.8306 17.1889 36.3533 16.0167 39.3988 16.0167H41.3131C41.2815 15.4165 41.0557 14.9569 40.6355 14.6378C40.2152 14.3188 39.6325 14.1592 38.8869 14.1592C37.8445 14.1592 36.7228 14.4783 35.5224 15.1164V13.0219C36.8175 12.5165 37.9927 12.2637 39.048 12.2637C40.5201 12.2637 41.6211 12.646 42.351 13.4105C43.0807 14.175 43.4455 15.3313 43.4455 16.8792V21.7411C43.4455 22.207 43.0679 22.5847 42.6021 22.5847Z" fill="#E8E5E6"/>
<path d="M53.1797 14.9932C52.6174 14.7089 52.0757 14.4956 51.5543 14.3535C51.0331 14.2113 50.526 14.1402 50.0332 14.1402C48.6621 14.1402 47.9767 14.5225 47.9767 15.287C47.9767 15.5588 48.0775 15.7736 48.2799 15.9314H48.2703C48.3967 16.0201 48.5941 16.1085 48.8628 16.1969C49.1312 16.2854 49.4646 16.3769 49.8626 16.4716C49.951 16.4844 50.038 16.5018 50.1233 16.5239C50.2086 16.5461 50.2954 16.5664 50.3839 16.5854C51.5716 16.8317 52.4088 17.1888 52.8955 17.6565H52.8859C53.4228 18.1491 53.6915 18.8221 53.6915 19.675C53.6915 20.6608 53.303 21.4379 52.5259 22.0066C52.1466 22.2845 51.7043 22.4931 51.1989 22.632C50.6935 22.771 50.1122 22.8406 49.4551 22.8406C48.937 22.8406 48.3794 22.7852 47.7823 22.6748C47.1852 22.564 46.5391 22.3982 45.8442 22.1772V19.8931C46.5454 20.2532 47.1977 20.5232 47.8013 20.7034C48.4047 20.8834 48.9717 20.9735 49.5024 20.9735C50.1532 20.9735 50.6523 20.8724 51 20.6702C51.3473 20.468 51.5212 20.1774 51.5212 19.7983C51.5212 19.4824 51.4106 19.2328 51.1894 19.0496C51.0567 18.9486 50.8403 18.8443 50.5403 18.7368C50.2402 18.6294 49.8658 18.5283 49.4173 18.4335C49.3286 18.4146 49.2402 18.3942 49.1518 18.3719C49.0633 18.3499 48.9749 18.3293 48.8865 18.3103C47.8755 18.0893 47.1268 17.7433 46.6403 17.2726C46.1537 16.8019 45.9106 16.1622 45.9106 15.3533C45.9106 14.3615 46.2532 13.5985 46.9388 13.0645C47.6244 12.5307 48.5956 12.2637 49.8532 12.2637C51.0409 12.2637 52.1499 12.4596 53.1797 12.8513V14.9932Z" fill="#E8E5E6"/>
<path d="M62.656 14.9932C62.0934 14.7089 61.5519 14.4956 61.0305 14.3535C60.5093 14.2113 60.0022 14.1402 59.5094 14.1402C58.1382 14.1402 57.4527 14.5225 57.4527 15.287C57.4527 15.5588 57.5538 15.7736 57.7561 15.9314H57.7466C57.8729 16.0201 58.0703 16.1085 58.339 16.1969C58.6074 16.2854 58.9408 16.3769 59.3388 16.4716C59.4272 16.4844 59.5142 16.5018 59.5995 16.5239C59.6846 16.5461 59.7715 16.5664 59.8601 16.5854C61.0478 16.8317 61.8851 17.1888 62.3717 17.6565H62.3621C62.8991 18.1491 63.1677 18.8221 63.1677 19.675C63.1677 20.6608 62.7792 21.4379 62.002 22.0066C61.6228 22.2845 61.1805 22.4931 60.6752 22.632C60.1696 22.771 59.5882 22.8406 58.9312 22.8406C58.413 22.8406 57.8556 22.7852 57.2585 22.6748C56.6614 22.564 56.0153 22.3982 55.3203 22.1772V19.8931C56.0217 20.2532 56.674 20.5232 57.2774 20.7034C57.8808 20.8834 58.4479 20.9735 58.9786 20.9735C59.6293 20.9735 60.1285 20.8724 60.476 20.6702C60.8234 20.468 60.9974 20.1774 60.9974 19.7983C60.9974 19.4824 60.8866 19.2328 60.6656 19.0496C60.533 18.9486 60.3164 18.8443 60.0164 18.7368C59.7162 18.6294 59.342 18.5283 58.8934 18.4335C58.8048 18.4146 58.7163 18.3942 58.6279 18.3719C58.5394 18.3499 58.451 18.3293 58.3626 18.3103C57.3516 18.0893 56.6029 17.7433 56.1164 17.2726C55.6299 16.8019 55.3866 16.1622 55.3866 15.3533C55.3866 14.3615 55.7294 13.5985 56.4148 13.0645C57.1004 12.5307 58.0719 12.2637 59.3292 12.2637C60.5171 12.2637 61.6261 12.4596 62.656 12.8513V14.9932Z" fill="#E8E5E6"/>
<path d="M72.3903 17.5522C72.3903 16.4655 72.1724 15.6188 71.7363 15.0121C71.5152 14.709 71.261 14.4878 70.9734 14.3489C70.6859 14.2099 70.3622 14.1403 70.002 14.1403C69.6355 14.1403 69.3102 14.2099 69.0258 14.3489C68.7415 14.4878 68.4918 14.709 68.2771 15.0121C67.8348 15.6252 67.6137 16.4717 67.6137 17.5522C67.6137 18.639 67.8348 19.4889 68.2771 20.1017C68.7067 20.683 69.2819 20.9736 70.002 20.9736C70.7223 20.9736 71.3006 20.683 71.7363 20.1017C72.1724 19.495 72.3903 18.6453 72.3903 17.5522ZM67.6137 13.3727C68.2961 12.6334 69.2217 12.2637 70.3907 12.2637C71.6352 12.2637 72.6493 12.7566 73.4329 13.7422H73.4234C74.1942 14.709 74.5796 15.9789 74.5796 17.5522C74.5796 18.3357 74.4848 19.0434 74.2954 19.6752C74.1058 20.307 73.8151 20.8661 73.4234 21.3526H73.4329C72.6493 22.3445 71.6352 22.8406 70.3907 22.8406C69.7966 22.8406 69.2723 22.752 68.8173 22.5753C68.3623 22.3984 67.9611 22.1204 67.6137 21.7413C67.6137 22.2071 67.236 22.5847 66.7702 22.5847H65.4907V9.88731C65.4907 9.44621 65.8482 9.08873 66.2892 9.08873H67.6137V13.3727Z" fill="#E8E5E6"/>
<path d="M81.6677 17.7891C81.0549 17.7891 80.5431 17.824 80.1325 17.8932C79.7216 17.9629 79.4027 18.0609 79.1753 18.1872C78.7707 18.4274 78.5687 18.8443 78.5687 19.4381C78.5687 19.912 78.7282 20.2863 79.0473 20.5613C79.3663 20.836 79.7974 20.9735 80.3409 20.9735C81.1371 20.9735 81.7626 20.6987 82.2174 20.1489C82.6976 19.574 82.9378 18.8159 82.9378 17.8743V17.7891H81.6677ZM84.2268 22.5847H82.9378V21.7032C82.5776 22.095 82.1527 22.3823 81.6631 22.5657C81.1734 22.7488 80.5934 22.8406 79.9239 22.8406C79.3869 22.8406 78.9098 22.7647 78.4928 22.6131C78.0759 22.4614 77.7125 22.2372 77.4029 21.9403C76.771 21.3464 76.4551 20.5439 76.4551 19.533C76.4551 17.1889 77.9778 16.0167 81.0233 16.0167H82.9378C82.9061 15.4165 82.6803 14.9569 82.26 14.6378C81.84 14.3188 81.257 14.1592 80.5115 14.1592C79.469 14.1592 78.3473 14.4783 77.147 15.1164V13.0219C78.4421 12.5165 79.6174 12.2637 80.6727 12.2637C82.1448 12.2637 83.2458 12.646 83.9756 13.4105C84.7054 14.175 85.0702 15.3313 85.0702 16.8792V21.7411C85.0702 22.207 84.6926 22.5847 84.2268 22.5847Z" fill="#E8E5E6"/>
<path d="M95.8467 22.5851H94.5674V16.6142C94.5674 14.9969 93.9575 14.1879 92.7381 14.1879C91.9673 14.1879 91.3639 14.425 90.9279 14.8988C90.492 15.3727 90.2739 16.0489 90.2739 16.927V21.7415C90.2739 22.2074 89.8963 22.5851 89.4305 22.5851H88.1416V13.2994C88.1416 12.8585 88.4989 12.501 88.94 12.501H90.2739V13.4488C90.6468 13.0382 91.0621 12.7379 91.5202 12.5485C91.9784 12.3589 92.4979 12.2641 93.0792 12.2641C94.2734 12.2641 95.1737 12.6242 95.7803 13.3445C96.387 14.0648 96.6902 15.1327 96.6902 16.5479V21.7415C96.6902 22.2074 96.3125 22.5851 95.8467 22.5851Z" fill="#E8E5E6"/>
<path d="M104.321 17.7891C103.708 17.7891 103.197 17.824 102.786 17.8932C102.375 17.9629 102.056 18.0609 101.829 18.1872C101.424 18.4274 101.222 18.8443 101.222 19.4381C101.222 19.912 101.382 20.2863 101.701 20.5613C102.02 20.836 102.451 20.9735 102.995 20.9735C103.791 20.9735 104.416 20.6987 104.871 20.1489C105.351 19.574 105.591 18.8159 105.591 17.8743V17.7891H104.321ZM106.88 22.5847H105.591V21.7032C105.231 22.095 104.806 22.3823 104.317 22.5657C103.827 22.7488 103.247 22.8406 102.578 22.8406C102.041 22.8406 101.564 22.7647 101.146 22.6131C100.729 22.4614 100.366 22.2372 100.057 21.9403C99.4248 21.3464 99.1089 20.5439 99.1089 19.533C99.1089 17.1889 100.631 16.0167 103.677 16.0167H105.591C105.56 15.4165 105.334 14.9569 104.914 14.6378C104.494 14.3188 103.911 14.1592 103.165 14.1592C102.123 14.1592 101.001 14.4783 99.8008 15.1164V13.0219C101.096 12.5165 102.271 12.2637 103.326 12.2637C104.798 12.2637 105.899 12.646 106.629 13.4105C107.359 14.175 107.724 15.3313 107.724 16.8792V21.7411C107.724 22.207 107.346 22.5847 106.88 22.5847Z" fill="#E8E5E6"/>
</svg>
