<svg width="17" height="16" viewBox="0 0 17 16" fill="none" xmlns="http://www.w3.org/2000/svg">
<path d="M0 1.85907C0 1.32034 0.191447 0.875897 0.574324 0.52574C0.957202 0.175567 1.45496 0.000488281 2.06757 0.000488281C2.66925 0.000488281 3.15604 0.172868 3.52799 0.517659C3.91087 0.873214 4.10232 1.3365 4.10232 1.90756C4.10232 2.42473 3.91635 2.85569 3.5444 3.20048C3.16152 3.55604 2.6583 3.73382 2.03475 3.73382H2.01834C1.41666 3.73382 0.929864 3.55604 0.557915 3.20048C0.185966 2.84493 0 2.39779 0 1.85907ZM0.21332 16.0005V5.20452H3.85618V16.0005H0.21332ZM5.87452 16.0005H9.51737V9.97219C9.51737 9.59508 9.56114 9.30417 9.64865 9.09946C9.8018 8.73313 10.0343 8.42336 10.346 8.17017C10.6578 7.91697 11.0489 7.79038 11.5193 7.79038C12.7445 7.79038 13.3571 8.60384 13.3571 10.2308V16.0005H17V9.81057C17 8.21596 16.6171 7.00654 15.8514 6.1823C15.0856 5.35806 14.0737 4.94594 12.8156 4.94594C11.4044 4.94594 10.305 5.54391 9.51737 6.73987V6.77219H9.50097L9.51737 6.73987V5.20452H5.87452C5.89639 5.5493 5.90734 6.62134 5.90734 8.42068C5.90734 10.22 5.89639 12.7466 5.87452 16.0005Z" fill="#1A0004" fill-opacity="0.7"/>
</svg>
