<svg width="76" height="32" viewBox="0 0 76 32" fill="none" xmlns="http://www.w3.org/2000/svg">
<path d="M19.3263 17.599L19.1216 17.3557C19.0663 17.2876 19.0079 17.2227 18.9494 17.1578L18.9071 17.1092C18.886 17.087 18.8631 17.0663 18.8389 17.0475C18.7187 16.9242 18.5952 16.8042 18.462 16.6907C18.3288 16.5771 18.2573 16.5285 18.1371 16.4473C18.0168 16.3662 18.0136 16.35 17.9453 16.3014C17.8771 16.2527 17.7114 16.1489 17.5912 16.0743C17.4709 15.9996 17.4482 15.9802 17.3702 15.9348C17.2922 15.8893 17.146 15.8115 17.0453 15.7498C16.9446 15.6882 16.8438 15.6395 16.7204 15.5876C15.7853 15.1445 14.8047 14.804 13.796 14.5722L9.76039 13.6249C8.35995 13.3005 7.37216 12.8917 6.79704 12.3986C6.5255 12.1797 6.30723 11.9023 6.15864 11.587C6.01006 11.2718 5.93504 10.927 5.93923 10.5786C5.92402 10.1294 6.02593 9.68389 6.23497 9.28581C6.44401 8.88772 6.75301 8.55066 7.13171 8.30764C7.92454 7.75936 9.06179 7.48361 10.5337 7.48361C11.7801 7.46223 13.0162 7.71128 14.1567 8.21356C15.078 8.62677 15.8885 9.25149 16.5222 10.0368C17.1827 8.78259 17.9804 7.60533 18.9006 6.52657C18.1809 5.77076 17.3271 5.15476 16.3824 4.70981C14.5746 3.87161 12.5979 3.4598 10.6052 3.50622C8.93528 3.47109 7.27605 3.78032 5.73127 4.41459C4.44956 4.93536 3.34283 5.80969 2.54047 6.93534C1.79669 8.03001 1.40971 9.32735 1.43247 10.65C1.41152 11.451 1.55493 12.2479 1.85388 12.9916C2.15284 13.7353 2.60101 14.4101 3.17084 14.9745C4.32758 16.1294 6.05187 16.9751 8.3437 17.5114L12.3078 18.4588C13.64 18.7853 14.5921 19.1995 15.164 19.7013C15.4443 19.9406 15.6672 20.2398 15.8163 20.5767C15.9653 20.9137 16.0366 21.2797 16.025 21.6478C16.0372 22.1296 15.9278 22.6068 15.7069 23.0354C15.4861 23.464 15.1608 23.8302 14.761 24.1004C13.9184 24.7082 12.727 25.011 11.1868 25.0088C9.70611 25.0349 8.24216 24.6926 6.92701 24.0128C5.68928 23.3594 4.66194 22.3696 3.96366 21.1579L0.724121 23.4613C1.55608 25.2067 2.93521 26.6338 4.65251 27.5263C6.45261 28.5061 8.57981 28.9959 11.0341 28.9959C12.7886 29.0411 14.5331 28.7184 16.155 28.0486C17.4761 27.4994 18.6061 26.5743 19.4043 25.3884C20.1622 24.209 20.5524 22.8315 20.5253 21.4304C20.566 20.0523 20.1389 18.7009 19.3133 17.5958" fill="#E8E5E6"/>
<path d="M39.9983 9.79985V11.4576C38.8858 10.4804 37.5698 9.76185 36.1454 9.35398C34.7209 8.94612 33.2236 8.85906 31.7614 9.0991C30.9373 9.22703 30.1334 9.4615 29.3699 9.79661C27.2574 10.7176 25.5268 12.3367 24.4693 14.3817C23.4118 16.4267 23.0918 18.7729 23.563 21.0258C24.0343 23.2787 25.2681 25.3009 27.057 26.7524C28.846 28.2039 31.0809 28.9961 33.386 28.9958C33.5355 28.9958 33.6817 28.9958 33.8312 28.9731C36.1106 28.8734 38.288 28.0015 40.0048 26.501V28.6519H44.2289V9.79985H39.9983ZM33.6557 25.0476C33.568 25.0476 33.477 25.0638 33.386 25.0638C31.7159 25.1287 30.0877 24.5331 28.8548 23.4065C27.6219 22.2798 26.884 20.713 26.8013 19.0463C26.7185 17.3797 27.2977 15.7477 28.4129 14.5048C29.5282 13.262 31.0895 12.5086 32.7578 12.4082C34.4261 12.3079 36.0667 12.8687 37.3233 13.9689C38.5799 15.0691 39.351 16.6199 39.4693 18.2844C39.5876 19.9489 39.0433 21.5928 37.9549 22.8591C36.8664 24.1254 35.3215 24.9118 33.6557 25.0476Z" fill="#E8E5E6"/>
<path d="M75.7243 6.2053C75.724 6.90266 75.453 7.57275 74.9683 8.07485C74.4836 8.57694 73.8229 8.87198 73.1249 8.89799H73.0079C72.4731 8.89863 71.9501 8.74088 71.5051 8.44468C71.0601 8.14848 70.7131 7.72715 70.508 7.234C70.3029 6.74084 70.2489 6.19802 70.3528 5.67422C70.4568 5.15042 70.714 4.66917 71.0919 4.29136C71.4699 3.91354 71.9516 3.65615 72.4761 3.55174C73.0006 3.44732 73.5443 3.50059 74.0385 3.70479C74.5326 3.90899 74.955 4.25494 75.2522 4.69889C75.5494 5.14284 75.7081 5.66483 75.7081 6.19881" fill="#E8E5E6"/>
<path d="M75.1685 11.1429H70.8892V28.9991H75.1685V11.1429Z" fill="#E8E5E6"/>
<path d="M65.4043 12.5801C64.2905 11.2411 62.8456 10.2158 61.2127 9.60579C59.5799 8.99579 57.8158 8.82225 56.0951 9.10235C55.2711 9.23028 54.4671 9.46475 53.7037 9.79986C52.7475 10.2192 51.8628 10.7851 51.0815 11.4771V3H46.8574V28.6519H51.0815V26.4913C52.9133 28.1086 55.2745 29.0006 57.7198 28.9991C57.8693 28.9991 58.0155 28.9991 58.1649 28.9764C60.0305 28.8958 61.8363 28.2961 63.3785 27.245C64.9206 26.1939 66.1378 24.7332 66.8924 23.0279C67.647 21.3226 67.9091 19.4406 67.649 17.5944C67.389 15.7482 66.6171 14.0114 65.4206 12.5801H65.4043ZM57.9895 25.0574C57.8985 25.0574 57.8108 25.0736 57.7198 25.0736C56.0497 25.1384 54.4215 24.5429 53.1886 23.4162C51.9557 22.2895 51.2178 20.7227 51.1351 19.0561C51.0523 17.3894 51.6315 15.7574 52.7467 14.5146C53.8619 13.2717 55.4232 12.5183 57.0915 12.418C58.7598 12.3176 60.4004 12.8784 61.657 13.9787C62.9137 15.0789 63.6848 16.6296 63.8031 18.2941C63.9213 19.9587 63.3771 21.6026 62.2886 22.8689C61.2001 24.1351 59.6553 24.9216 57.9895 25.0574Z" fill="#E8E5E6"/>
<path d="M28.0861 7.30179C26.3191 8.12125 24.7627 9.33235 23.5352 10.8429C22.3078 12.3535 21.4416 14.1238 21.0026 16.019L20.8889 15.8827C20.8239 15.8016 20.7524 15.7237 20.6842 15.6491L20.5802 15.5291C20.5412 15.4869 20.4958 15.448 20.4503 15.4026C20.2846 15.2371 20.1253 15.0781 19.9661 14.9516C19.8069 14.8251 19.7257 14.757 19.6022 14.6629L19.5112 14.5948L19.2968 14.4358C19.1668 14.3417 19.0271 14.2541 18.8874 14.1665L18.7899 14.1049L18.5592 13.9589C18.4422 13.8908 18.3187 13.8259 18.1953 13.761L18.075 13.6994C17.9711 13.641 17.8627 13.5858 17.7501 13.5339L17.6299 13.4755C19.0759 9.27952 22.1307 5.82806 26.1235 3.87915L28.0861 7.30179Z" fill="#E8E5E6"/>
</svg>
